<svg xmlns="http://www.w3.org/2000/svg" fill="none" viewBox="0 0 18 18"><path fill-rule="evenodd" d="M3.73252 2.67094c-.40023-.3861-.40023-1.02721 0-1.4133.38039-.366956.983-.366956 1.36339 0l2.12132 2.04639c.06026.05815.11146.12207.15358.19004h3.20809c.0422-.06797.0934-.13189.1536-.19004l2.1213-2.04639c.3804-.366956.983-.366956 1.3634 0 .4003.38609.4003 1.0272 0 1.4133l-.8532.82313H14c2.2091 0 4 1.79086 4 4v5.50553c0 2.2091-1.7909 4-4 4H4c-2.20914 0-4-1.7909-4-4V7.49406c0-2.20914 1.79086-3.99999 4-3.99999h.58579l-.85327-.82313ZM4 5.42343c-1.10457 0-2 .89543-2 2v5.64677c0 1.1046.89543 2 2 2h10c1.1046 0 2-.8954 2-2V7.42343c0-1.10457-.8954-2-2-2H4Zm1 3.89404c0-.55228.44772-1 1-1s1 .44772 1 1v.89403c0 .5523-.44772 1-1 1s-1-.4477-1-1v-.89403Zm7-1c-.5523 0-1 .44772-1 1v.89403c0 .5523.4477 1 1 1s1-.4477 1-1v-.89403c0-.55228-.4477-1-1-1Z" clip-rule="evenodd"/></svg>