<svg xmlns="http://www.w3.org/2000/svg" viewBox="0 0 350 350"><path fill="#9e8f73" d="M0 0h28c1 19-5 37-14 53-6 5-5 17-14 17V0Z"/><path fill="#b1a69c" d="M28 0h6v14c-5 14-9 29-15 43C9 70 9 87 0 101V70c9 0 8-12 14-17 9-16 15-34 14-53Z"/><path fill="#dfe2e4" d="M34 0h249c3 5-5 10-9 7-17-2-24 17-39 18-9 3-3 16-11 20-10-5-4-24-15-28-1-3-8-5-5 0 6 6 4 14 6 22 0 9 3 17 7 25-1 5-2 13-8 8-1-6 5-13 2-19-2 6-12 24-18 12 1 6-1 11-6 5-3 5-6 11-12 14 7 4 17-1 24 2-1 9-10 16-9 25-12-2-15 8-7 15 8 1 9 12 19 10 10 3 3 26 17 19 2-9 18-11 19-1-5-2-7 6-2 7 6 0 0 12 9 8 7-4 6 9 5 13-2 9 6 25-7 28-7 4 0 15 6 11 3-5 11-12 14-4-3 8-12 9-20 11 0-7-10-6-9-13 4-13-8-21-20-18-3-10-14-6-16 1 3 6 13 4 17 10-7 4-14 5-21 0-9-5-2 22-9 6-17 2-27-10-37-23-10-11-25 2-35-7-11-9-23-19-24-34-2-11-4-31 8-37 0-16-24-11-32-5-12 6-26-2-37-4-1-6-6-7-9-12-15 4-6-17-2-23 1-10 10-10 17-12-1-3-6-2-7-5-5-5 1-11 3-16 6 7 12-2 13-8-4-4-10-7-9-14V0m116 108c0 9-5 22-12 23-5-7-15-11-19-19-6-3-11 3-4 4 5 5-8 7-7 13 2 5-5 14 3 16 10 2 1 15 8 19 16-6 20 14 33 18-1 10 6 17 12 23 6 4 10-12 15-4s8-6 12-8c7-5 8-15 9-23-3-7-4-14 0-20 3-15-13-1-18-9-7-4-8-15-17-16-5-3-2-10-4-14-4-1-8 0-11-3Z"/><path fill="#d4d5d3" d="M283 0h67v41c-25 4-4 39-19 51-3-1-2-12-6-7-2 8-2 18 2 25-6 3-17-6-18 5-3-7-11-9-18-11 0 9 17 13 11 24-1 7-5-4-8 1-3 6-13 1-14 8 1 7-9 14-3 19 9 2 10-16 20-10 3-3 7-7 12-8 7 4 14 11 22 15 3 10 7 20 6 31-1 7 9 3 13 2v120c-23-5-31 26-29 44h-48c-5-5-13-2-17-7-3-5 0-13-4-19-6-10 6-18 5-28l1-16c0-2 2-5 0-8-2-10-15-5-17-14-6-11-14-24-27-24-8-9 6-9 12-5 10-1 5-10 0-13-5 7-6-4-11-1-12-1-3 13-9 18-11-5-25-1-32 8-7-4-16 4-19-5 0-7-8-18 4-17 9-9-6-21-14-26l-11-4c-5-2-10 2-16 3-8-5-12-15-22-18l-2-2c-5-11-10-23-12-35-6-3-9-10-7-17-10-8-23 2-26 13-7 2-16 13-24 6-3-7 9-18 2-24-10 5-22 9-27 21v-35c9-14 9-31 19-44 6-14 10-29 15-43-1 7 5 10 9 14-1 6-7 15-13 8-2 5-8 11-3 16 1 3 6 2 7 5-7 2-16 2-17 12-4 6-13 27 2 23 3 5 8 6 9 12 11 2 25 10 37 4 8-6 32-11 32 5-12 6-10 26-8 37 1 15 13 25 24 34 10 9 25-4 35 7 10 13 20 25 37 23 7 16 0-11 9-6 7 5 14 4 21 0-4-6-14-4-17-10 2-7 13-11 16-1 12-3 24 5 20 18-1 7 9 6 9 13 8-2 17-3 20-11-3-8-11-1-14 4-6 4-13-7-6-11 13-3 5-19 7-28 1-4 2-17-5-13-9 4-3-8-9-8-5-1-3-9 2-7-1-10-17-8-19 1-14 7-7-16-17-19-10 2-11-9-19-10-8-7-5-17 7-15-1-9 8-16 9-25-7-3-17 2-24-2 6-3 9-9 12-14 5 6 7 1 6-5 6 12 16-6 18-12 3 6-3 13-2 19 6 5 7-3 8-8-4-8-7-16-7-25 5 11 10 23 7 35v4c1 8-1 16-5 23 2 7 11 1 16 3 18 5 30-14 45-19 3 2 4 7 8 6 2-7-11-6-8-14 0-10-10-20-2-29 5-6-2-12-5-17-7 5-15 8-23 8-10 8-9 21-4 32-3 5-13 2-18 4 3-6 1-12-2-17-1-14-4-28-10-41 11 4 5 23 15 28 8-4 2-17 11-20 15-1 22-20 39-18 4 3 12-2 9-7m12 280c-10 1-8 12-3 17-5 9 4 16 2 25 6-3 16-1 18-9-2-5-8-12-3-17 5-10-9-12-14-16Z"/><path fill="#c8c8bc" d="M204 17c-3-5 4-3 5 0 6 13 9 27 10 41 3 5 5 11 2 17 5-2 15 1 18-4-5-11-6-24 4-32 8 0 16-3 23-8 3 5 10 11 5 17-8 9 2 19 2 29-3 8 10 7 8 14-4 1-5-4-8-6-15 5-27 24-45 19-5-2-14 4-16-3 4-7 6-15 5-23 3 6-3 22 5 24 1-8 1-23-5-28 3-12-2-24-7-35-2-8 0-16-6-22Z"/><path fill="#ccccc6" d="M331 92c15-12-6-47 19-51v145c-4 1-14 5-13-2 1-11-3-21-6-31-8-4-15-11-22-15-5 1-9 5-12 8-10-6-11 12-20 10-6-5 4-12 3-19 1-7 11-2 14-8 3-5 7 6 8-1 6-11-11-15-11-24 7 2 15 4 18 11 1-11 12-2 18-5-4-7-4-17-2-25 4-5 3 6 6 7Z"/><path fill="#94958c" d="M217 74c6 5 6 20 5 28-8-2-2-18-5-24v-4Z"/><path fill="#e6e9ef" d="M150 108c3 3 7 2 11 3 2 4-1 11 4 14 9 1 10 12 17 16 5 8 21-6 18 9-4 6-3 13 0 20-1 8-2 18-9 23-4 2-7 16-12 8s-9 8-15 4c-6-6-13-13-12-23-13-4-17-24-33-18-7-4 2-17-8-19-8-2-1-11-3-16-1-6 12-8 7-13-7-1-2-7 4-4 4 8 14 12 19 19 7-1 12-14 12-23Z"/><path fill="#bdbaaf" d="M0 136c5-12 17-16 27-21 7 6-5 17-2 24 8 7 17-4 24-6 3-11 16-21 26-13-2 7 1 14 7 17 2 12 7 24 12 35-6-8-15-16-14-27 0-6-5-14-12-13-14 6-30 13-45 14 0 9-9 4-13 1-4 2-6 6-10 7v-18Z"/><path fill="#959289" d="M23 146c15-1 31-8 45-14 7-1 12 7 12 13-1 11 8 19 14 27l2 2c3 4 9 6 12 11 4 8-8 3-9 9 0 3-3 9-7 7-10-7-19-20-31-23-3 9-7 22-2 32 6 2 11 6 15 11 3 11 16 13 26 13 10 3 15 13 21 21 4 5-9 0-4 7 7 3 12 20 20 13 2-5 10-2 8 3-4 7-15 4-20 10-1 5-13 7-9 1 12-10-5-20-14-25-9 2-6-12-12-16-3-3-6 1-7 4-7 8-7-3-3-8-12-13-29-17-44-25-2-1-6-3-6 1 4 10 5 22 9 32 0 3-4 1-6 1L0 232v-78c4-1 6-5 10-7 4 3 13 8 13-1m27-3c-9 5 4 17-4 22-16-4 1 20-8 25-7-2-9-13-17-13-12-4 2 14-8 13-4-2-4 4 0 5 11 4 14 22 28 21 10 0 20 10 30 7-1-9-18-7-16-18 1-13-6-30 9-35 11 6 23 17 36 13-8-7-12-22-25-19-6-4-14 4-10-7-8-2-5-17-15-14Z"/><path fill="#898274" d="M50 143c10-3 7 12 15 14-4 11 4 3 10 7 13-3 17 12 25 19-13 4-25-7-36-13-15 5-8 22-9 35-2 11 15 9 16 18-10 3-20-7-30-7-14 1-17-17-28-21-4-1-4-7 0-5 10 1-4-17 8-13 8 0 10 11 17 13 9-5-8-29 8-25 8-5-5-17 4-22Z"/><path fill="#b6b6b7" d="M96 174c10 3 14 13 22 18 6-1 11-5 16-3-8 1-15 9-23 3 1 8 11 11 9 20 3 9-7 9-12 9s-5 6-7 10c-10 3-19-5-27-10-4-5-9-9-15-11-5-10-1-23 2-32 12 3 21 16 31 23 4 2 7-4 7-7 1-6 13-1 9-9-3-5-9-7-12-11Z"/><path fill="#9f9d97" d="M111 192c8 6 15-2 23-3l11 4c5 5 10 11 12 19-6 3-12-2-17-4-3 8-4 18 1 25l18 11c2 7 4 25-8 21-10-4-2 11-3 15 0 10-13 4-18 10-8 8-6 23-17 30-6 6-1 17 5 21 3 5 11 4 14 9h-3c-10-6-19-12-28-20l2-9c-14 6-29-7-41-14 3 0 5 2 7 3 9 2 17 8 25 10 7-12 14-26 23-37-3-13-23-10-26-23-1-4-3-11-8-8 1-3 4-7 7-4 6 4 3 18 12 16 9 5 26 15 14 25-4 6 8 4 9-1 5-6 16-3 20-10 2-5-6-8-8-3-8 7-13-10-20-13-5-7 8-2 4-7-6-8-11-18-21-21-10 0-23-2-26-13 8 5 17 13 27 10 2-4 2-10 7-10s15 0 12-9c2-9-8-12-9-20Z"/><path fill="#c0c3c3" d="M145 193c8 5 23 17 14 26-12-1-4 10-4 17 3 9 12 1 19 5 7-9 21-13 32-8 6-5-3-19 9-18 5-3 6 8 11 1 5 3 10 12 0 13-6-4-20-4-12 5 13 0 21 13 27 24 2 9 15 4 17 14-5-9-18-3-20-13-4-7-9-17-16-20-5 7-10-3-17-2-14-9-12 10-8 18-4 6-12 13-20 9 1 7 14 4 15 13 14 14 18 35 25 53 4 7-5 13-3 20h-7c-2-6-3-13 2-18 0-14-7-28-12-42-4-7-12-7-17-2-5-5-15-3-17-11-14-9-10 15-18 20-17-5-21 16-29 27 3 8 4 19 15 19 2 2 2 5 3 7h-2c-3-5-11-4-14-9-6-4-11-15-5-21 11-7 9-22 17-30 5-6 18 0 18-10 1-4-7-19 3-15 12 4 10-14 8-21l-18-11c-5-7-4-17-1-25 5 2 11 7 17 4-2-8-7-14-12-19Z"/><path fill="#b0b1ac" d="M30 220c0-4 4-2 6-1 15 8 32 12 44 25-4 5-4 16 3 8 5-3 7 4 8 8 3 13 23 10 26 23-9 11-16 25-23 37-8-2-16-8-25-10 8-6 15-13 26-16 5-7-8-2-7-7 2-8-8-14-3-20 2-3 0-10-5-8-3 5-2 13-7 16-5 1-1-3-1-6 1-10 2-25-10-28l-22-4c-2 8 6 15 4 23-17-1-29-16-44-21v-7l33 21c2 0 6 2 6-1-4-10-5-22-9-32Z"/><path fill="#b3b5b3" d="M197 255c-4-8-6-27 8-18 7-1 12 9 17 2 7 3 12 13 16 20 2 10 15 4 20 13 2 3 0 6 0 8 0-7-9-14-15-9-7-8-15-17-20-27-4 6-10-3-14 4-5 7 8 20 0 27-5 3-3 9-1 13 4-4 9-11 15-8 1 7 7 16 1 23-11 5-8 18-4 27 3 7-3 14 1 20h-7c-2-7 7-13 3-20-7-18-11-39-25-53-1-9-14-6-15-13 8 4 16-3 20-9Z"/><path fill="#bec1c1" d="m40 237 22 4c12 3 11 18 10 28 0 3-4 7 1 6 5-3 4-11 7-16 5-2 7 5 5 8-5 6 5 12 3 20-1 5 12 0 7 7-11 3-18 10-26 16-2-1-4-3-7-3-13-5-19-16-27-26-6-6-15-15-24-10-4-1-7-6-11-8v-24c15 5 27 20 44 21 2-8-6-15-4-23Z"/><path fill="#a7a69f" d="M209 248c4-7 10 2 14-4 5 10 13 19 20 27 6-5 15 2 15 9l-1 16c1 10-11 18-5 28 4 6 1 14 4 19 4 5 12 2 17 7h-29c-1-6-1-12 2-17 3-7-6-11-8-17-5-10 6-17 6-26 3-3-4-10-4-4-2 12-9 22-18 30-4 16 9 26 20 34h-21c-4-6 2-13-1-20-4-9-7-22 4-27 6-7 0-16-1-23-6-3-11 4-15 8-2-4-4-10 1-13 8-7-5-20 0-27Z"/><path fill="#7a6d63" d="M0 263c4 2 7 7 11 8 9-5 18 4 24 10 8 10 14 21 27 26 12 7 27 20 41 14l-2 9c9 8 18 14 28 20H0v-87Z"/><path fill="#d5d8dd" d="M145 297c8-5 4-29 18-20 2 8 12 6 17 11 5-5 13-5 17 2 5 14 12 28 12 42-5 5-4 12-2 18h-73c-1-2-1-5-3-7-11 0-12-11-15-19 8-11 12-32 29-27Z"/><path fill="#bdc2c0" d="M295 280c5 4 19 6 14 16-5 5 1 12 3 17-2 8-12 6-18 9 2-9-7-16-2-25-5-5-7-16 3-17Z"/><path fill="#8f8d81" d="M240 286c0-6 7 1 4 4 0 9-11 16-6 26 2 6 11 10 8 17-3 5-3 11-2 17h-2c-11-8-24-18-20-34 9-8 16-18 18-30Z"/><path fill="#aaacad" d="M321 350c-2-18 6-49 29-44v44h-29Z"/></svg>