<?xml version="1.0" encoding="UTF-8" ?>
<!DOCTYPE svg PUBLIC "-//W3C//DTD SVG 1.1//EN" "http://www.w3.org/Graphics/SVG/1.1/DTD/svg11.dtd">
<svg width="350pt" height="350pt" viewBox="0 0 350 350" version="1.1" xmlns="http://www.w3.org/2000/svg">
<g id="#9e8f73ff">
<path fill="#9e8f73" opacity="1.00" d=" M 0.00 0.00 L 28.06 0.00 C 29.12 18.51 22.56 36.92 13.87 52.86 C 7.97 57.78 9.36 69.96 0.00 70.44 L 0.00 0.00 Z" />
</g>
<g id="#b1a69cff">
<path fill="#b1a69c" opacity="1.00" d=" M 28.06 0.00 L 33.94 0.00 C 34.03 4.57 34.11 9.15 34.20 13.72 C 29.37 28.12 24.93 42.74 18.54 56.57 C 8.61 69.60 9.44 87.41 0.00 100.66 L 0.00 70.44 C 9.36 69.96 7.97 57.78 13.87 52.86 C 22.56 36.92 29.12 18.51 28.06 0.00 Z" />
</g>
<g id="#dfe2e4ff">
<path fill="#dfe2e4" opacity="1.00" d=" M 33.94 0.00 L 283.05 0.00 C 285.88 5.41 277.85 9.86 273.57 6.57 C 257.06 4.51 250.23 24.03 235.00 24.98 C 226.06 27.74 232.45 40.78 223.54 44.81 C 213.99 39.90 220.35 20.60 208.97 16.89 C 207.99 14.07 201.13 12.01 203.54 16.56 C 209.50 22.71 208.33 31.23 210.14 38.83 C 209.71 47.72 213.00 55.99 216.52 63.58 C 215.93 68.57 215.30 77.24 209.04 72.03 C 208.34 66.47 213.57 59.09 210.71 52.71 C 209.47 58.54 198.86 77.01 192.90 65.47 C 194.41 70.63 191.54 75.71 187.00 69.99 C 184.31 75.14 180.86 80.95 174.63 83.85 C 182.20 88.44 191.62 83.29 198.89 86.27 C 198.12 95.01 189.25 101.58 190.37 111.40 C 178.11 108.77 175.16 119.31 183.08 125.92 C 191.34 127.27 191.76 138.27 201.64 136.44 C 212.14 138.78 205.34 161.83 218.84 154.84 C 221.16 145.50 236.67 143.82 238.04 153.53 C 233.46 151.78 230.99 160.30 236.01 160.95 C 241.64 161.48 236.20 172.79 244.69 168.64 C 251.57 164.68 251.18 178.18 250.39 181.84 C 248.44 191.15 256.07 207.02 243.26 210.30 C 236.18 213.73 242.76 225.01 248.53 220.61 C 251.60 216.06 260.07 209.22 263.00 217.10 C 259.73 224.68 250.87 226.32 243.30 227.73 C 242.98 220.92 232.80 221.92 234.23 215.33 C 237.69 202.46 226.26 194.48 214.34 196.62 C 211.26 186.51 200.42 190.59 197.91 197.92 C 201.36 204.25 211.03 202.21 215.44 207.89 C 208.40 211.84 201.26 213.11 194.38 207.57 C 185.33 203.26 192.20 230.22 185.29 213.62 C 167.80 215.50 157.57 203.50 147.63 191.37 C 138.05 180.29 123.09 192.85 113.16 183.83 C 102.27 174.87 89.99 164.98 89.23 149.68 C 86.55 138.59 85.00 118.77 96.72 112.78 C 96.54 97.12 73.05 102.35 65.15 108.08 C 52.93 113.98 39.37 106.33 27.74 104.26 C 26.94 98.30 21.58 96.74 18.56 92.31 C 3.97 96.22 13.25 75.40 16.74 68.84 C 17.62 59.40 26.73 58.73 34.23 56.91 C 32.73 53.92 28.44 54.97 26.99 51.98 C 22.09 46.60 28.29 41.25 30.19 36.17 C 36.11 42.58 41.60 33.71 42.68 28.23 C 38.94 23.76 33.44 20.56 34.20 13.72 C 34.11 9.15 34.03 4.57 33.94 0.00 M 149.97 108.05 C 150.48 117.40 145.21 129.70 137.86 131.21 C 133.02 123.58 123.25 120.43 118.74 112.18 C 113.26 109.45 107.70 115.49 114.99 116.08 C 119.82 121.38 106.67 122.99 108.26 128.68 C 110.39 133.99 102.74 143.08 110.98 145.08 C 121.13 147.03 111.69 159.78 119.37 163.81 C 135.09 158.12 138.98 178.46 151.79 182.23 C 151.17 191.56 158.27 198.57 163.69 205.30 C 169.61 209.11 173.98 193.23 178.84 201.13 C 183.91 209.14 187.04 195.25 190.53 192.59 C 198.27 188.23 199.02 178.05 199.66 170.00 C 196.82 163.46 195.97 156.27 199.98 149.98 C 202.98 135.35 187.41 149.03 182.19 140.77 C 174.73 136.69 174.07 125.90 165.33 124.68 C 159.94 122.12 163.21 115.46 160.70 111.30 C 157.14 109.72 152.95 111.21 149.97 108.05 Z" />
</g>
<g id="#d4d5d3ff">
<path fill="#d4d5d3" opacity="1.00" d=" M 283.05 0.00 L 350.00 0.00 L 350.00 40.60 C 325.45 45.20 346.42 79.77 331.07 91.93 C 328.26 91.01 329.28 80.35 325.31 85.34 C 322.52 93.44 323.27 102.50 326.90 109.72 C 321.08 113.49 309.81 104.08 308.70 115.22 C 306.02 108.15 297.53 106.11 290.99 103.91 C 290.88 113.31 307.55 116.98 302.06 128.03 C 301.41 134.67 297.29 124.04 293.92 128.82 C 291.10 135.14 280.73 129.76 280.45 137.44 C 281.22 143.79 271.19 150.66 277.35 155.75 C 286.44 157.93 286.79 140.40 297.13 145.61 C 300.40 142.60 304.08 139.30 309.26 138.24 C 316.38 142.32 323.39 149.05 331.23 152.70 C 333.58 163.08 338.06 173.05 336.99 184.01 C 336.26 191.31 346.02 186.70 350.00 185.70 L 350.00 305.84 C 326.65 301.08 318.54 332.44 321.00 350.00 L 272.62 350.00 C 268.47 344.52 260.45 347.68 255.68 343.34 C 252.51 337.68 256.08 329.81 252.19 323.86 C 245.71 314.09 257.74 305.82 256.85 295.95 C 256.96 290.70 257.69 285.49 258.27 280.28 C 258.44 277.52 259.55 274.59 258.15 272.01 C 256.02 262.35 242.85 266.82 240.73 258.18 C 235.39 247.30 227.37 233.61 213.73 234.24 C 205.82 225.29 220.04 224.93 225.91 228.79 C 236.44 228.30 230.87 218.58 225.51 216.33 C 221.24 222.97 220.07 211.95 214.95 214.79 C 203.30 214.21 212.04 228.04 205.77 232.80 C 194.91 227.55 181.30 232.22 173.71 240.75 C 167.37 237.15 158.06 245.09 155.01 236.08 C 155.41 229.42 147.26 217.84 158.90 218.92 C 168.00 210.01 152.55 198.08 145.00 192.96 C 141.77 190.93 137.98 190.11 134.28 189.42 C 128.77 187.02 123.61 191.16 118.24 191.74 C 110.18 186.56 105.59 176.65 95.83 174.08 C 95.16 173.47 94.50 172.85 93.86 172.21 C 88.92 160.80 84.33 149.23 82.05 136.94 C 76.21 133.57 72.81 127.24 74.73 120.26 C 64.70 112.21 51.54 121.67 48.70 132.74 C 41.50 135.36 32.72 145.71 24.68 139.23 C 21.77 131.94 33.98 120.86 26.96 114.97 C 16.78 120.35 4.88 124.36 0.00 135.62 L 0.00 100.66 C 9.44 87.41 8.61 69.60 18.54 56.57 C 24.93 42.74 29.37 28.12 34.20 13.72 C 33.44 20.56 38.94 23.76 42.68 28.23 C 41.60 33.71 36.11 42.58 30.19 36.17 C 28.29 41.25 22.09 46.60 26.99 51.98 C 28.44 54.97 32.73 53.92 34.23 56.91 C 26.73 58.73 17.62 59.40 16.74 68.84 C 13.25 75.40 3.97 96.22 18.56 92.31 C 21.58 96.74 26.94 98.30 27.74 104.26 C 39.37 106.33 52.93 113.98 65.15 108.08 C 73.05 102.35 96.54 97.12 96.72 112.78 C 85.00 118.77 86.55 138.59 89.23 149.68 C 89.99 164.98 102.27 174.87 113.16 183.83 C 123.09 192.85 138.05 180.29 147.63 191.37 C 157.57 203.50 167.80 215.50 185.29 213.62 C 192.20 230.22 185.33 203.26 194.38 207.57 C 201.26 213.11 208.40 211.84 215.44 207.89 C 211.03 202.21 201.36 204.25 197.91 197.92 C 200.42 190.59 211.26 186.51 214.34 196.62 C 226.26 194.48 237.69 202.46 234.23 215.33 C 232.80 221.92 242.98 220.92 243.30 227.73 C 250.87 226.32 259.73 224.68 263.00 217.10 C 260.07 209.22 251.60 216.06 248.53 220.61 C 242.76 225.01 236.18 213.73 243.26 210.30 C 256.07 207.02 248.44 191.15 250.39 181.84 C 251.18 178.18 251.57 164.68 244.69 168.64 C 236.20 172.79 241.64 161.48 236.01 160.95 C 230.99 160.30 233.46 151.78 238.04 153.53 C 236.67 143.82 221.16 145.50 218.84 154.84 C 205.34 161.83 212.14 138.78 201.64 136.44 C 191.76 138.27 191.34 127.27 183.08 125.92 C 175.16 119.31 178.11 108.77 190.37 111.40 C 189.25 101.58 198.12 95.01 198.89 86.27 C 191.62 83.29 182.20 88.44 174.63 83.85 C 180.86 80.95 184.31 75.14 187.00 69.99 C 191.54 75.71 194.41 70.63 192.90 65.47 C 198.86 77.01 209.47 58.54 210.71 52.71 C 213.57 59.09 208.34 66.47 209.04 72.03 C 215.30 77.24 215.93 68.57 216.52 63.58 C 213.00 55.99 209.71 47.72 210.14 38.83 C 214.53 49.60 220.05 61.74 217.15 73.73 C 217.11 75.09 217.13 76.44 217.20 77.79 C 217.55 85.90 215.94 93.99 211.93 101.04 C 213.98 108.00 223.16 101.91 228.37 103.74 C 246.47 109.15 257.65 90.49 273.06 84.95 C 275.72 87.00 276.99 91.60 281.00 91.06 C 283.21 83.54 270.21 85.00 272.92 77.03 C 273.02 67.14 263.43 56.95 270.54 47.57 C 275.80 42.18 268.95 36.05 266.01 31.28 C 258.84 35.53 251.30 38.62 242.90 38.92 C 232.68 47.22 233.69 60.20 238.77 71.07 C 236.30 76.48 225.73 72.88 221.05 75.05 C 223.78 69.23 222.21 63.28 219.27 57.73 C 217.73 43.85 214.95 29.64 208.97 16.89 C 220.35 20.60 213.99 39.90 223.54 44.81 C 232.45 40.78 226.06 27.74 235.00 24.98 C 250.23 24.03 257.06 4.51 273.57 6.57 C 277.85 9.86 285.88 5.41 283.05 0.00 M 294.95 280.16 C 285.30 281.23 286.96 291.76 291.60 297.18 C 287.01 305.98 296.03 312.98 294.22 322.13 C 300.00 319.04 309.80 320.71 311.94 313.03 C 309.73 307.62 304.20 301.41 308.82 295.81 C 314.45 286.02 299.65 284.49 294.95 280.16 Z" />
</g>
<g id="#c8c8bcff">
<path fill="#c8c8bc" opacity="1.00" d=" M 203.54 16.56 C 201.13 12.01 207.99 14.07 208.97 16.89 C 214.95 29.64 217.73 43.85 219.27 57.73 C 222.21 63.28 223.78 69.23 221.05 75.05 C 225.73 72.88 236.30 76.48 238.77 71.07 C 233.69 60.20 232.68 47.22 242.90 38.92 C 251.30 38.62 258.84 35.53 266.01 31.28 C 268.95 36.05 275.80 42.18 270.54 47.57 C 263.43 56.95 273.02 67.14 272.92 77.03 C 270.21 85.00 283.21 83.54 281.00 91.06 C 276.99 91.60 275.72 87.00 273.06 84.95 C 257.65 90.49 246.47 109.15 228.37 103.74 C 223.16 101.91 213.98 108.00 211.93 101.04 C 215.94 93.99 217.55 85.90 217.20 77.79 C 220.48 83.80 214.44 100.15 221.77 101.89 C 223.31 94.29 223.48 78.70 217.15 73.73 C 220.05 61.74 214.53 49.60 210.14 38.83 C 208.33 31.23 209.50 22.71 203.54 16.56 Z" />
</g>
<g id="#ccccc6ff">
<path fill="#ccccc6" opacity="1.00" d=" M 331.07 91.93 C 346.42 79.77 325.45 45.20 350.00 40.60 L 350.00 185.70 C 346.02 186.70 336.26 191.31 336.99 184.01 C 338.06 173.05 333.58 163.08 331.23 152.70 C 323.39 149.05 316.38 142.32 309.26 138.24 C 304.08 139.30 300.40 142.60 297.13 145.61 C 286.79 140.40 286.44 157.93 277.35 155.75 C 271.19 150.66 281.22 143.79 280.45 137.44 C 280.73 129.76 291.10 135.14 293.92 128.82 C 297.29 124.04 301.41 134.67 302.06 128.03 C 307.55 116.98 290.88 113.31 290.99 103.91 C 297.53 106.11 306.02 108.15 308.70 115.22 C 309.81 104.08 321.08 113.49 326.90 109.72 C 323.27 102.50 322.52 93.44 325.31 85.34 C 329.28 80.35 328.26 91.01 331.07 91.93 Z" />
</g>
<g id="#94958cff">
<path fill="#94958c" opacity="1.00" d=" M 217.15 73.73 C 223.48 78.70 223.31 94.29 221.77 101.89 C 214.44 100.15 220.48 83.80 217.20 77.79 C 217.13 76.44 217.11 75.09 217.15 73.73 Z" />
</g>
<g id="#e6e9efff">
<path fill="#e6e9ef" opacity="1.00" d=" M 149.97 108.05 C 152.95 111.21 157.14 109.72 160.70 111.30 C 163.21 115.46 159.94 122.12 165.33 124.68 C 174.07 125.90 174.73 136.69 182.19 140.77 C 187.41 149.03 202.98 135.35 199.98 149.98 C 195.97 156.27 196.82 163.46 199.66 170.00 C 199.02 178.05 198.27 188.23 190.53 192.59 C 187.04 195.25 183.91 209.14 178.84 201.13 C 173.98 193.23 169.61 209.11 163.69 205.30 C 158.27 198.57 151.17 191.56 151.79 182.23 C 138.98 178.46 135.09 158.12 119.37 163.81 C 111.69 159.78 121.13 147.03 110.98 145.08 C 102.74 143.08 110.39 133.99 108.26 128.68 C 106.67 122.99 119.82 121.38 114.99 116.08 C 107.70 115.49 113.26 109.45 118.74 112.18 C 123.25 120.43 133.02 123.58 137.86 131.21 C 145.21 129.70 150.48 117.40 149.97 108.05 Z" />
</g>
<g id="#bdbaafff">
<path fill="#bdbaaf" opacity="1.00" d=" M 0.00 135.62 C 4.88 124.36 16.78 120.35 26.96 114.97 C 33.98 120.86 21.77 131.94 24.68 139.23 C 32.72 145.71 41.50 135.36 48.70 132.74 C 51.54 121.67 64.70 112.21 74.73 120.26 C 72.81 127.24 76.21 133.57 82.05 136.94 C 84.33 149.23 88.92 160.80 93.86 172.21 C 87.61 164.10 78.73 156.34 80.08 144.98 C 79.78 138.93 75.01 130.72 68.16 132.10 C 53.88 138.21 37.91 144.82 23.23 146.12 C 22.92 155.39 14.28 150.49 9.87 147.12 C 6.06 148.71 4.20 153.15 0.00 154.32 L 0.00 135.62 Z" />
</g>
<g id="#959289ff">
<path fill="#959289" opacity="1.00" d=" M 23.23 146.12 C 37.91 144.82 53.88 138.21 68.16 132.10 C 75.01 130.72 79.78 138.93 80.08 144.98 C 78.73 156.34 87.61 164.10 93.86 172.21 C 94.50 172.85 95.16 173.47 95.83 174.08 C 99.46 178.16 105.01 180.46 107.59 185.42 C 111.58 193.18 99.53 187.73 98.64 193.51 C 98.50 197.15 96.01 202.77 91.57 201.38 C 82.12 193.53 72.90 181.38 61.32 178.20 C 57.69 187.28 54.08 199.87 59.28 209.69 C 65.04 212.21 70.10 215.85 74.17 220.68 C 76.56 232.31 89.99 234.03 99.77 234.44 C 110.06 237.14 114.63 247.45 121.22 254.79 C 125.32 260.26 111.76 254.78 116.94 262.05 C 123.76 264.73 128.69 282.10 136.86 274.88 C 138.82 269.92 146.88 272.60 144.79 277.68 C 140.64 285.23 130.18 282.01 125.04 288.00 C 124.24 292.78 111.92 295.41 116.35 289.27 C 127.83 278.72 111.01 268.91 102.44 263.67 C 93.11 265.85 95.52 252.31 89.84 248.19 C 87.29 245.08 84.22 249.48 82.64 251.56 C 75.69 260.08 75.77 249.08 79.69 244.08 C 67.99 231.34 50.92 226.73 36.08 218.86 C 33.90 217.68 29.56 215.65 30.02 219.95 C 33.90 230.37 35.07 241.57 39.03 251.95 C 38.52 255.28 35.42 253.30 33.45 252.53 C 21.64 247.04 10.76 239.77 0.00 232.48 L 0.00 154.32 C 4.20 153.15 6.06 148.71 9.87 147.12 C 14.28 150.49 22.92 155.39 23.23 146.12 M 50.40 143.22 C 40.53 147.51 53.91 159.60 46.30 164.62 C 30.25 161.37 46.84 185.00 37.94 190.01 C 31.31 188.19 29.20 176.75 21.03 176.93 C 9.28 172.91 22.95 190.67 13.28 190.43 C 9.14 188.15 8.70 194.37 12.62 194.51 C 24.42 198.60 27.28 217.47 41.40 215.51 C 50.63 216.20 60.67 226.02 70.78 222.71 C 69.60 214.32 52.91 215.80 55.25 204.70 C 56.31 192.35 48.58 175.15 63.99 169.94 C 74.81 176.16 86.72 187.21 100.02 182.91 C 92.06 176.18 87.62 161.25 74.52 164.49 C 69.44 159.87 61.10 167.82 64.84 157.32 C 56.69 155.15 60.33 139.97 50.40 143.22 Z" />
</g>
<g id="#898274ff">
<path fill="#898274" opacity="1.00" d=" M 50.40 143.22 C 60.33 139.97 56.69 155.15 64.84 157.32 C 61.10 167.82 69.44 159.87 74.52 164.49 C 87.62 161.25 92.06 176.18 100.02 182.91 C 86.72 187.21 74.81 176.16 63.99 169.94 C 48.58 175.15 56.31 192.35 55.25 204.70 C 52.91 215.80 69.60 214.32 70.78 222.71 C 60.67 226.02 50.63 216.20 41.40 215.51 C 27.28 217.47 24.42 198.60 12.62 194.51 C 8.70 194.37 9.14 188.15 13.28 190.43 C 22.95 190.67 9.28 172.91 21.03 176.93 C 29.20 176.75 31.31 188.19 37.94 190.01 C 46.84 185.00 30.25 161.37 46.30 164.62 C 53.91 159.60 40.53 147.51 50.40 143.22 Z" />
</g>
<g id="#b6b6b7ff">
<path fill="#b6b6b7" opacity="1.00" d=" M 95.83 174.08 C 105.59 176.65 110.18 186.56 118.24 191.74 C 123.61 191.16 128.77 187.02 134.28 189.42 C 126.02 190.30 118.79 197.59 110.96 191.83 C 111.60 199.78 121.88 203.20 120.07 212.05 C 123.04 220.81 113.37 220.55 108.00 220.97 C 102.94 221.47 102.86 227.47 100.64 230.73 C 90.66 234.29 81.60 226.31 74.17 220.68 C 70.10 215.85 65.04 212.21 59.28 209.69 C 54.08 199.87 57.69 187.28 61.32 178.20 C 72.90 181.38 82.12 193.53 91.57 201.38 C 96.01 202.77 98.50 197.15 98.64 193.51 C 99.53 187.73 111.58 193.18 107.59 185.42 C 105.01 180.46 99.46 178.16 95.83 174.08 Z" />
</g>
<g id="#9f9d97ff">
<path fill="#9f9d97" opacity="1.00" d=" M 110.96 191.83 C 118.79 197.59 126.02 190.30 134.28 189.42 C 137.98 190.11 141.77 190.93 145.00 192.96 C 150.16 198.30 155.26 204.41 156.92 211.82 C 151.49 215.02 145.23 209.82 140.10 207.92 C 136.95 215.91 136.28 226.19 141.48 233.48 C 147.43 236.82 153.65 239.81 159.22 243.77 C 161.13 250.56 162.61 268.62 151.32 264.89 C 141.03 260.70 149.44 275.61 147.73 279.65 C 147.67 289.58 134.61 283.77 130.03 290.04 C 121.65 298.44 124.41 313.24 113.26 320.25 C 106.66 325.99 112.34 336.77 117.70 341.29 C 121.06 346.47 128.84 344.57 131.69 350.00 L 128.69 350.00 C 118.84 344.41 109.51 337.70 101.35 329.72 C 101.40 326.74 103.22 323.98 103.07 320.92 C 88.92 327.24 73.55 314.45 62.12 306.72 C 64.67 307.39 66.98 308.67 69.03 310.31 C 78.22 311.54 86.04 318.43 94.43 320.44 C 101.22 307.80 108.35 294.30 117.43 282.67 C 113.89 269.99 94.41 272.85 91.38 259.67 C 89.68 255.88 88.26 249.05 82.64 251.56 C 84.22 249.48 87.29 245.08 89.84 248.19 C 95.52 252.31 93.11 265.85 102.44 263.67 C 111.01 268.91 127.83 278.72 116.35 289.27 C 111.92 295.41 124.24 292.78 125.04 288.00 C 130.18 282.01 140.64 285.23 144.79 277.68 C 146.88 272.60 138.82 269.92 136.86 274.88 C 128.69 282.10 123.76 264.73 116.94 262.05 C 111.76 254.78 125.32 260.26 121.22 254.79 C 114.63 247.45 110.06 237.14 99.77 234.44 C 89.99 234.03 76.56 232.31 74.17 220.68 C 81.60 226.31 90.66 234.29 100.64 230.73 C 102.86 227.47 102.94 221.47 108.00 220.97 C 113.37 220.55 123.04 220.81 120.07 212.05 C 121.88 203.20 111.60 199.78 110.96 191.83 Z" />
</g>
<g id="#c0c3c3ff">
<path fill="#c0c3c3" opacity="1.00" d=" M 145.00 192.96 C 152.55 198.08 168.00 210.01 158.90 218.92 C 147.26 217.84 155.41 229.42 155.01 236.08 C 158.06 245.09 167.37 237.15 173.71 240.75 C 181.30 232.22 194.91 227.55 205.77 232.80 C 212.04 228.04 203.30 214.21 214.95 214.79 C 220.07 211.95 221.24 222.97 225.51 216.33 C 230.87 218.58 236.44 228.30 225.91 228.79 C 220.04 224.93 205.82 225.29 213.73 234.24 C 227.37 233.61 235.39 247.30 240.73 258.18 C 242.85 266.82 256.02 262.35 258.15 272.01 C 253.27 263.18 240.29 269.32 237.71 259.19 C 234.03 252.02 229.23 242.46 222.23 239.13 C 216.58 245.82 211.68 235.80 205.16 236.57 C 190.50 228.20 193.15 247.25 196.87 254.75 C 192.82 261.03 184.52 268.01 176.89 263.89 C 178.29 271.34 191.22 267.84 191.99 277.02 C 206.02 291.01 210.46 311.67 216.99 330.01 C 220.57 337.24 212.12 342.51 213.84 350.00 L 207.30 350.00 C 205.43 343.69 203.87 337.16 209.39 332.39 C 209.30 317.60 202.43 303.71 196.56 290.35 C 192.91 283.11 185.25 283.26 180.03 287.97 C 174.73 282.61 164.98 285.45 162.61 277.22 C 149.14 267.57 153.39 292.37 144.57 296.80 C 127.55 291.93 123.51 313.47 115.98 324.07 C 118.58 331.55 120.26 343.36 130.60 343.49 C 132.67 344.88 132.97 347.88 134.15 350.00 L 131.69 350.00 C 128.84 344.57 121.06 346.47 117.70 341.29 C 112.34 336.77 106.66 325.99 113.26 320.25 C 124.41 313.24 121.65 298.44 130.03 290.04 C 134.61 283.77 147.67 289.58 147.73 279.65 C 149.44 275.61 141.03 260.70 151.32 264.89 C 162.61 268.62 161.13 250.56 159.22 243.77 C 153.65 239.81 147.43 236.82 141.48 233.48 C 136.28 226.19 136.95 215.91 140.10 207.92 C 145.23 209.82 151.49 215.02 156.92 211.82 C 155.26 204.41 150.16 198.30 145.00 192.96 Z" />
</g>
<g id="#b0b1acff">
<path fill="#b0b1ac" opacity="1.00" d=" M 30.02 219.95 C 29.56 215.65 33.90 217.68 36.08 218.86 C 50.92 226.73 67.99 231.34 79.69 244.08 C 75.77 249.08 75.69 260.08 82.64 251.56 C 88.26 249.05 89.68 255.88 91.38 259.67 C 94.41 272.85 113.89 269.99 117.43 282.67 C 108.35 294.30 101.22 307.80 94.43 320.44 C 86.04 318.43 78.22 311.54 69.03 310.31 C 77.15 304.22 84.37 296.77 94.78 293.75 C 99.53 287.49 86.83 292.28 87.60 286.53 C 89.67 279.24 79.76 273.07 84.57 266.56 C 87.25 263.61 84.64 257.24 80.28 259.11 C 76.90 263.55 78.08 272.08 72.89 274.96 C 67.93 276.47 71.53 271.64 72.18 269.23 C 73.41 259.20 74.12 244.05 61.79 241.26 C 54.90 238.59 47.24 238.00 39.99 236.96 C 37.75 245.06 46.34 252.19 43.85 259.93 C 26.72 259.23 15.31 244.47 0.00 238.56 L 0.00 232.48 C 10.76 239.77 21.64 247.04 33.45 252.53 C 35.42 253.30 38.52 255.28 39.03 251.95 C 35.07 241.57 33.90 230.37 30.02 219.95 Z" />
</g>
<g id="#b3b5b3ff">
<path fill="#b3b5b3" opacity="1.00" d=" M 196.87 254.75 C 193.15 247.25 190.50 228.20 205.16 236.57 C 211.68 235.80 216.58 245.82 222.23 239.13 C 229.23 242.46 234.03 252.02 237.71 259.19 C 240.29 269.32 253.27 263.18 258.15 272.01 C 259.55 274.59 258.44 277.52 258.27 280.28 C 257.81 273.36 249.44 266.04 242.98 271.03 C 235.99 262.60 228.29 253.96 222.89 244.17 C 219.23 250.26 212.76 241.48 209.05 248.05 C 203.51 255.30 216.61 267.53 209.12 275.10 C 204.06 277.60 205.93 284.12 208.30 288.02 C 211.78 283.53 217.01 276.98 223.29 279.65 C 224.49 287.01 229.93 296.24 223.61 302.66 C 213.15 308.36 215.52 321.41 219.64 330.36 C 223.12 336.81 216.73 343.92 221.21 350.00 L 213.84 350.00 C 212.12 342.51 220.57 337.24 216.99 330.01 C 210.46 311.67 206.02 291.01 191.99 277.02 C 191.22 267.84 178.29 271.34 176.89 263.89 C 184.52 268.01 192.82 261.03 196.87 254.75 Z" />
</g>
<g id="#bec1c1ff">
<path fill="#bec1c1" opacity="1.00" d=" M 39.99 236.96 C 47.24 238.00 54.90 238.59 61.79 241.26 C 74.12 244.05 73.41 259.20 72.18 269.23 C 71.53 271.64 67.93 276.47 72.89 274.96 C 78.08 272.08 76.90 263.55 80.28 259.11 C 84.64 257.24 87.25 263.61 84.57 266.56 C 79.76 273.07 89.67 279.24 87.60 286.53 C 86.83 292.28 99.53 287.49 94.78 293.75 C 84.37 296.77 77.15 304.22 69.03 310.31 C 66.98 308.67 64.67 307.39 62.12 306.72 C 49.41 302.47 42.55 291.20 35.19 280.80 C 28.60 275.11 20.04 266.40 10.96 270.96 C 6.55 269.90 3.54 265.48 0.00 262.69 L 0.00 238.56 C 15.31 244.47 26.72 259.23 43.85 259.93 C 46.34 252.19 37.75 245.06 39.99 236.96 Z" />
</g>
<g id="#a7a69fff">
<path fill="#a7a69f" opacity="1.00" d=" M 209.05 248.05 C 212.76 241.48 219.23 250.26 222.89 244.17 C 228.29 253.96 235.99 262.60 242.98 271.03 C 249.44 266.04 257.81 273.36 258.27 280.28 C 257.69 285.49 256.96 290.70 256.85 295.95 C 257.74 305.82 245.71 314.09 252.19 323.86 C 256.08 329.81 252.51 337.68 255.68 343.34 C 260.45 347.68 268.47 344.52 272.62 350.00 L 244.11 350.00 C 243.39 344.31 242.96 338.16 246.03 333.06 C 249.43 325.80 240.03 322.33 237.64 316.30 C 233.45 306.20 243.99 299.49 243.90 289.82 C 246.62 286.50 240.21 279.51 239.58 285.61 C 238.11 297.71 231.11 308.20 221.95 315.94 C 217.59 331.58 230.85 341.74 241.67 350.00 L 221.21 350.00 C 216.73 343.92 223.12 336.81 219.64 330.36 C 215.52 321.41 213.15 308.36 223.61 302.66 C 229.93 296.24 224.49 287.01 223.29 279.65 C 217.01 276.98 211.78 283.53 208.30 288.02 C 205.93 284.12 204.06 277.60 209.12 275.10 C 216.61 267.53 203.51 255.30 209.05 248.05 Z" />
</g>
<g id="#7a6d63ff">
<path fill="#7a6d63" opacity="1.00" d=" M 0.00 262.69 C 3.54 265.48 6.55 269.90 10.96 270.96 C 20.04 266.40 28.60 275.11 35.19 280.80 C 42.55 291.20 49.41 302.47 62.12 306.72 C 73.55 314.45 88.92 327.24 103.07 320.92 C 103.22 323.98 101.40 326.74 101.35 329.72 C 109.51 337.70 118.84 344.41 128.69 350.00 L 0.00 350.00 L 0.00 262.69 Z" />
</g>
<g id="#d5d8ddff">
<path fill="#d5d8dd" opacity="1.00" d=" M 144.57 296.80 C 153.39 292.37 149.14 267.57 162.61 277.22 C 164.98 285.45 174.73 282.61 180.03 287.97 C 185.25 283.26 192.91 283.11 196.56 290.35 C 202.43 303.71 209.30 317.60 209.39 332.39 C 203.87 337.16 205.43 343.69 207.30 350.00 L 134.15 350.00 C 132.97 347.88 132.67 344.88 130.60 343.49 C 120.26 343.36 118.58 331.55 115.98 324.07 C 123.51 313.47 127.55 291.93 144.57 296.80 Z" />
</g>
<g id="#bdc2c0ff">
<path fill="#bdc2c0" opacity="1.00" d=" M 294.95 280.16 C 299.65 284.49 314.45 286.02 308.82 295.81 C 304.20 301.41 309.73 307.62 311.94 313.03 C 309.80 320.71 300.00 319.04 294.22 322.13 C 296.03 312.98 287.01 305.98 291.60 297.18 C 286.96 291.76 285.30 281.23 294.95 280.16 Z" />
</g>
<g id="#8f8d81ff">
<path fill="#8f8d81" opacity="1.00" d=" M 239.58 285.61 C 240.21 279.51 246.62 286.50 243.90 289.82 C 243.99 299.49 233.45 306.20 237.64 316.30 C 240.03 322.33 249.43 325.80 246.03 333.06 C 242.96 338.16 243.39 344.31 244.11 350.00 L 241.67 350.00 C 230.85 341.74 217.59 331.58 221.95 315.94 C 231.11 308.20 238.11 297.71 239.58 285.61 Z" />
</g>
<g id="#aaacadff">
<path fill="#aaacad" opacity="1.00" d=" M 321.00 350.00 C 318.54 332.44 326.65 301.08 350.00 305.84 L 350.00 350.00 L 321.00 350.00 Z" />
</g>
</svg>
